<?xml version="1.0" standalone="no"?><!DOCTYPE svg PUBLIC "-//W3C//DTD SVG 1.1//EN" "http://www.w3.org/Graphics/SVG/1.1/DTD/svg11.dtd"><svg t="1575592148075" class="icon" viewBox="0 0 1024 1024" version="1.1" xmlns="http://www.w3.org/2000/svg" p-id="19998" width="64" height="64" xmlns:xlink="http://www.w3.org/1999/xlink"><defs><style type="text/css"></style></defs><path d="M824.636 998.4l-42.23-196.978c0.219-7.98 2.515-27.44 11.7-36.776 3.74-3.74 8.31-5.489 14.434-5.489h0.044c87.303 0 157.067-69.726 157.067-155.457 0-49.917-24.45-97.188-65.412-126.421l-21.454-15.349-6.386 25.604c-28.911 115.641-112.89 210.971-224.71 254.985l-15.505 6.1L709.318 998.4H640.34l-68.233-245.627s-5.27-22.936 5.009-38.853c5.336-8.2 14.127-13.36 27.008-15.808l2.034-0.482c132.727-41.192 221.91-161.863 221.91-300.266 0-174.24-141.78-315.987-316.058-315.987S195.93 223.103 195.93 397.342c0 140.393 90.846 261.566 226.065 301.513 32.651 10.407 29.174 56.607 29.108 57.045L383.68 998.4h-57.32l75.91-245.758-16.14-5.816C269.85 704.89 182.415 607.767 152.257 487.009l-5.664-22.674-23.138 12.791-1.137 1.246c-40.175 29.474-63.969 76.09-63.969 125.328 0 85.753 69.786 155.48 155.536 155.48h0.153c7.59 0 12.138 1.749 15.834 5.487 9.185 9.315 11.503 28.687 11.722 36.755L199.364 998.4h-65.018l57.057-183.728-19.507-3.936C73.767 790.97 2.56 703.884 2.56 603.7c0-83.894 49.84-159.874 126.996-193.567l10.673-4.657 0.11-11.632C142.24 190.809 308.973 25.6 512.01 25.6c203.037 0 369.77 165.209 371.673 368.244l0.11 11.632 10.65 4.657c77.133 33.671 126.996 109.629 126.996 193.523 0 100.206-71.207 187.293-169.314 207.08l-19.508 3.936L889.676 998.4h-65.04zM330.209 439.235l-0.612-2.755-1.443-2.427c-3.084-5.182-4.527-9.555-4.527-13.753 0-15.371 12.51-27.9 27.883-27.9 15.375 0 27.884 12.529 27.884 27.9v17.95h6.452c17.495 53.919 68.386 91.7 126.165 91.7 57.801 0 108.67-37.781 126.187-91.7h6.452V420.3c0-15.371 12.51-27.9 27.883-27.9 15.397 0 27.884 12.529 27.884 27.9 0 4.176-1.421 8.549-4.527 13.753l-1.421 2.427-0.635 2.755c-19.726 86.234-94.52 146.47-181.823 146.47-87.325 0-162.075-60.236-181.802-146.47z" p-id="19999" fill="#d3d2d4"></path></svg>