<?xml version="1.0" standalone="no"?><!DOCTYPE svg PUBLIC "-//W3C//DTD SVG 1.1//EN" "http://www.w3.org/Graphics/SVG/1.1/DTD/svg11.dtd"><svg t="1575591954632" class="icon" viewBox="0 0 1024 1024" version="1.1" xmlns="http://www.w3.org/2000/svg" p-id="3609" width="64" height="64" xmlns:xlink="http://www.w3.org/1999/xlink"><defs><style type="text/css"></style></defs><path d="M237.568 859.136c-16.384 0-28.672-12.288-28.672-27.648 0-15.36 12.288-27.648 28.672-27.648h570.368c16.384 0 28.672 12.288 28.672 27.648 0 15.36-12.288 27.648-28.672 27.648H237.568z" p-id="3610" fill="#d3d2d4"></path><path d="M237.568 951.296c-69.632 0-125.952-53.248-125.952-119.808V192.512c0-40.96 34.816-73.728 77.824-73.728h570.368c43.008 0 77.824 32.768 77.824 73.728v500.736c0 40.96-34.816 73.728-77.824 73.728h-522.24c-37.888 0-67.584 28.672-67.584 64.512s30.72 64.512 67.584 64.512h618.496c11.264 0 19.456-8.192 19.456-18.432V238.592c0-15.36 12.288-27.648 28.672-27.648 16.384 0 28.672 12.288 28.672 27.648v638.976c0 40.96-34.816 73.728-77.824 73.728H237.568zM189.44 174.08c-11.264 0-19.456 8.192-19.456 18.432v538.624c20.48-12.288 44.032-19.456 67.584-19.456h522.24c11.264 0 19.456-8.192 19.456-18.432V192.512c0-10.24-8.192-18.432-19.456-18.432H189.44z" p-id="3611" fill="#d3d2d4"></path></svg>