<?xml version="1.0" standalone="no"?><!DOCTYPE svg PUBLIC "-//W3C//DTD SVG 1.1//EN" "http://www.w3.org/Graphics/SVG/1.1/DTD/svg11.dtd"><svg t="1575618406537" class="icon" viewBox="0 0 1024 1024" version="1.1" xmlns="http://www.w3.org/2000/svg" p-id="1490" width="64" height="64" xmlns:xlink="http://www.w3.org/1999/xlink"><defs><style type="text/css"></style></defs><path d="M512 1045.333c282.309 0 512-229.693 512-512 0-282.307-229.691-512-512-512s-512 229.693-512 512c0 282.307 229.691 512 512 512v0zM512 85.333c247.044 0 448.002 200.956 448.002 448 0 247.038-200.958 448.002-448.002 448.002s-448-200.964-448-448.002c0-247.044 200.956-448 448-448v0zM512 221.329c102.048 0 184.801 82.053 184.801 183.302 0 101.218-82.717 183.265-184.801 183.265-102.078 0-184.769-82.053-184.769-183.265 0-101.249 82.723-183.302 184.769-183.302v0zM512 535.508c72.901 0 132.002-58.62 132.002-130.914 0-72.319-59.101-130.908-132.002-130.908s-132.002 58.622-132.002 130.908c0 72.325 59.101 130.914 132.002 130.914v0zM512 535.508c145.826 0 264.004 117.217 264.004 261.829h-52.806c0-115.649-94.556-209.441-211.198-209.441s-211.202 93.79-211.202 209.441h-52.799c0-144.611 118.176-261.829 264.002-261.829v0zM512 535.508z" p-id="1491" fill="#6c51e9"></path></svg>