<?xml version="1.0" standalone="no"?><!DOCTYPE svg PUBLIC "-//W3C//DTD SVG 1.1//EN" "http://www.w3.org/Graphics/SVG/1.1/DTD/svg11.dtd"><svg t="1576193169531" class="icon" viewBox="0 0 1049 1024" version="1.1" xmlns="http://www.w3.org/2000/svg" p-id="5709" width="65.5625" height="64" xmlns:xlink="http://www.w3.org/1999/xlink"><defs><style type="text/css"></style></defs><path d="M998.4 1024H640a51.3536 51.3536 0 0 1-51.2-51.2V614.4a51.3536 51.3536 0 0 1 51.2-51.2h358.4a51.3536 51.3536 0 0 1 51.2 51.2v358.4a51.3536 51.3536 0 0 1-51.2 51.2z m8.704-369.152a25.6 25.6 0 0 0-36.096 3.072l-183.552 217.344L691.2 780.8a25.6 25.6 0 1 0-35.84 36.352l115.712 113.92c0.256 0.256 1.024 0.512 1.28 0.768l0.512 0.512a18.5856 18.5856 0 0 0 2.304 1.28 16.1792 16.1792 0 0 0 5.888 3.072 10.624 10.624 0 0 0 4.096 0.768 17.7408 17.7408 0 0 0 5.12 0.768 40.96 40.96 0 0 0 5.376-1.28 21.3248 21.3248 0 0 0 3.84-1.024 25.6 25.6 0 0 0 5.888-3.84c0.512-0.512 1.28-0.768 1.792-1.28l0.512-0.512a5.5808 5.5808 0 0 1 1.28-1.024l201.472-238.336a25.6 25.6 0 0 0-3.328-36.096zM972.8 460.8H614.4a51.3536 51.3536 0 0 1-51.2-51.2V51.2a51.3536 51.3536 0 0 1 51.2-51.2h358.4a51.3536 51.3536 0 0 1 51.2 51.2v358.4a51.3536 51.3536 0 0 1-51.2 51.2z m0-358.4a51.3536 51.3536 0 0 0-51.2-51.2H665.6a51.3536 51.3536 0 0 0-51.2 51.2v256a51.3536 51.3536 0 0 0 51.2 51.2h256a51.3536 51.3536 0 0 0 51.2-51.2V102.4zM409.6 1024H51.2a51.3536 51.3536 0 0 1-51.2-51.2V614.4a51.3536 51.3536 0 0 1 51.2-51.2h358.4a51.3536 51.3536 0 0 1 51.2 51.2v358.4a51.3536 51.3536 0 0 1-51.2 51.2z m0-358.4a51.3536 51.3536 0 0 0-51.2-51.2H102.4a51.3536 51.3536 0 0 0-51.2 51.2v256a51.3536 51.3536 0 0 0 51.2 51.2h256a51.3536 51.3536 0 0 0 51.2-51.2V665.6z m0-204.8H51.2a51.3536 51.3536 0 0 1-51.2-51.2V51.2a51.3536 51.3536 0 0 1 51.2-51.2h358.4a51.3536 51.3536 0 0 1 51.2 51.2v358.4a51.3536 51.3536 0 0 1-51.2 51.2z m0-358.4a51.3536 51.3536 0 0 0-51.2-51.2H102.4a51.3536 51.3536 0 0 0-51.2 51.2v256a51.3536 51.3536 0 0 0 51.2 51.2h256a51.3536 51.3536 0 0 0 51.2-51.2V102.4z" fill="#ffffff" p-id="5710"></path></svg>