<?xml version="1.0" standalone="no"?><!DOCTYPE svg PUBLIC "-//W3C//DTD SVG 1.1//EN" "http://www.w3.org/Graphics/SVG/1.1/DTD/svg11.dtd"><svg t="1575622062416" class="icon" viewBox="0 0 1024 1024" version="1.1" xmlns="http://www.w3.org/2000/svg" p-id="3015" width="64" height="64" xmlns:xlink="http://www.w3.org/1999/xlink"><defs><style type="text/css"></style></defs><path d="M618.35318469 500.33757687a257.87081531 257.87081531 0 0 0 109.08062156-210.73833093c0-141.97076813-114.662895-257.53889719-255.63790594-257.53889719S216.24851656 147.477605 216.24851656 289.59924594a257.44837312 257.44837312 0 0 0 109.05044813 210.79867968c-60.92220656 21.69542625-130.29325781 60.13767094-177.39556782 107.4512025-82.9193775 83.55304125-114.96463969 150.11786906-114.96463968 268.25082469 0 27.39839719-0.15087187 15.41914219 0 38.32154625 0.15087187 19.79443688 18.70815656 38.32154625 38.32154625 38.32154625s38.32154625-18.52711031 38.32154625-38.32154625c-0.15087187-22.75153219 0-11.07402188 0-38.32154625 0-136.96181062 159.53229562-328.90146187 362.39509687-328.90146187 72.59971688-7.54361156 94.26496969-14.36303625 146.37623813-46.71004219zM300.73696531 282.32720375a172.86940125 172.86940125 0 1 1 172.86940125 172.47713344 172.83922688 172.83922688 0 0 1-172.86940125-172.47713344zM332.2089125 733.88778875l85.30315875-110.52899531c12.22065094-15.87175875 36.72230063-20.09618062 54.82696875-9.47477625s22.54031156 31.35124969 10.74210281 46.92126375l-0.45261656 0.60348843-89.82932625 113.21452126a8.78076375 8.78076375 0 0 0 0 11.22489375l92.45450344 113.27487093c12.22065094 15.08722312 8.32814719 35.84724187-8.720415 46.61951907-0.72418688 0.42244219-1.5087225 0.87505875-2.23290938 1.23715218-19.43234344 10.50070688-44.80905188 5.73314438-57.60301781-10.86280031l-84.48844875-109.50306469-27.36822187-35.48514843a17.41065563 17.41065563 0 0 1 0-21.78595032z m627.6284775 0l-85.30315875-110.52899531c-12.22065094-15.87175875-36.72230063-20.09618062-54.85714313-9.47477625s-22.51013719 31.35124969-10.77227718 46.92126375c0.18104625 0.18104625 0.33191906 0.42244219 0.51296531 0.60348843l89.82932625 113.21452126a8.75058938 8.75058938 0 0 1 0 11.22489375l-92.39415375 113.27487093c-12.06977813 15.08722312-8.29797281 35.84724187 8.75058938 46.61951907 0.72418688 0.42244219 1.44837375 0.87505875 2.23290843 1.23715218 19.43234344 10.50070688 44.7788775 5.73314438 57.57284344-10.86280031l84.48844875-109.50306469 27.36822281-35.48514843a17.41065563 17.41065563 0 0 0 0-21.78595032z m-237.08062219-115.90004719l-79.90193344 340.57897219c-4.31494594 22.63083469-24.13955719 37.20509156-44.47713375 32.5582275s-32.7996225-26.31211688-28.7260725-48.6110325a5.76331875 5.76331875 0 0 1 0-0.63366375l82.88920313-341.6652525c4.19424844-21.42385687 23.17397438-35.0023575 42.24422531-30.17444531h0.241395c19.34182031 4.88826 31.62281906 26.2819425 27.45874594 48.00754312z" fill="#6c51e9" p-id="3016"></path></svg>