<?xml version="1.0" standalone="no"?><!DOCTYPE svg PUBLIC "-//W3C//DTD SVG 1.1//EN" "http://www.w3.org/Graphics/SVG/1.1/DTD/svg11.dtd"><svg t="1575621982653" class="icon" viewBox="0 0 1024 1024" version="1.1" xmlns="http://www.w3.org/2000/svg" p-id="1200" width="64" height="64" xmlns:xlink="http://www.w3.org/1999/xlink"><defs><style type="text/css"></style></defs><path d="M909.429 1.053H114.834A113.84 113.84 0 0 0 1.317 114.571v794.595a113.84 113.84 0 0 0 113.517 113.517H370.25c17.028 0 28.38-11.351 28.38-28.379s-11.352-28.38-28.38-28.38H114.834a56.934 56.934 0 0 1-56.759-56.758V114.542c0-31.188 25.542-56.76 56.76-56.76h794.623c31.188 0 56.76 25.572 56.76 56.76v141.897c0 17.057 11.322 28.38 28.35 28.38s28.379-11.323 28.379-28.38V114.542A113.84 113.84 0 0 0 909.429 1.053" p-id="1201" fill="#6c51e9"></path><path d="M171.593 284.848h397.312c17.028 0 28.38-11.352 28.38-28.38s-11.352-28.38-28.38-28.38H171.593c-17.028 0-28.38 11.352-28.38 28.38s11.352 28.38 28.38 28.38zM398.63 483.504H171.593c-17.028 0-28.38 11.322-28.38 28.379 0 16.998 11.352 28.38 28.38 28.38H398.63c17.027 0 28.379-11.382 28.379-28.38 0-17.057-11.352-28.38-28.38-28.38z m621.48 479.583c-11.352-116.356-93.623-210.008-201.494-241.226 70.948-31.217 119.193-99.328 119.193-181.628a197.427 197.427 0 0 0-198.656-198.656 197.427 197.427 0 0 0-198.656 198.656c0 82.3 48.275 150.411 119.223 181.628-107.842 31.218-187.304 124.87-201.494 238.388v5.676c0 17.027 14.19 28.379 28.38 28.379 17.027 0 28.38-14.19 28.38-28.38v-2.837c14.189-110.68 110.679-198.656 224.167-198.656 116.356 0 210.008 87.976 224.198 198.656 0 17.027 14.19 28.38 28.38 28.38 17.027 2.837 28.379-8.515 28.379-28.38 0 2.838 0 2.838 0 0 0 2.838 0 2.838 0 0zM597.285 540.233c0-79.462 62.434-141.897 141.897-141.897 79.433 0 141.897 62.435 141.897 141.897 0 79.463-62.464 141.897-141.897 141.897-79.463 0-141.897-62.434-141.897-141.897z" p-id="1202" fill="#6c51e9"></path></svg>