<?xml version="1.0" standalone="no"?><!DOCTYPE svg PUBLIC "-//W3C//DTD SVG 1.1//EN" "http://www.w3.org/Graphics/SVG/1.1/DTD/svg11.dtd"><svg t="1576209477666" class="icon" viewBox="0 0 1024 1024" version="1.1" xmlns="http://www.w3.org/2000/svg" p-id="6616" width="64" height="64" xmlns:xlink="http://www.w3.org/1999/xlink"><defs><style type="text/css"></style></defs><path d="M884.363636 232.727273v605.090909a43.287273 43.287273 0 0 1-46.545454 46.545454H186.181818a40.634182 40.634182 0 0 1-46.545454-46.545454v-46.545455a40.634182 40.634182 0 0 1 46.545454-46.545454h558.545455a63.860364 63.860364 0 0 0 46.545454-46.545455V186.181818a79.127273 79.127273 0 0 0-93.090909-93.090909H186.181818a79.127273 79.127273 0 0 0-93.090909 93.090909v646.516364A106.309818 106.309818 0 0 0 186.181818 930.909091h651.636364a83.781818 83.781818 0 0 0 93.090909-93.090909V231.796364c0-38.632727-46.545455-45.614545-46.545455 0.930909zM209.454545 791.272727h558.545455a23.272727 23.272727 0 0 1 23.272727 23.272728 23.645091 23.645091 0 0 1-23.272727 23.272727h-558.545455a23.272727 23.272727 0 0 1-23.272727-23.272727 23.272727 23.272727 0 0 1 23.272727-23.272728z" p-id="6617" fill="#6c51e9"></path></svg>